<?xml version="1.0" standalone="no"?>
<!DOCTYPE svg PUBLIC "-//W3C//DTD SVG 20010904//EN"
 "http://www.w3.org/TR/2001/REC-SVG-20010904/DTD/svg10.dtd">
<svg version="1.0" xmlns="http://www.w3.org/2000/svg"
 width="400.000000pt" height="400.000000pt" viewBox="0 0 400.000000 400.000000"
 preserveAspectRatio="xMidYMid meet">
<metadata>
Created by potrace 1.14, written by Peter Selinger 2001-2017
</metadata>
<g transform="translate(0.000000,400.000000) scale(0.100000,-0.100000)"
fill="#000000" stroke="none">
<path d="M520 3480 c-20 -20 -20 -33 -20 -1480 0 -1447 0 -1460 20 -1480 20
-20 33 -20 1480 -20 1447 0 1460 0 1480 20 20 20 20 33 20 1480 0 1447 0 1460
-20 1480 -20 20 -33 20 -1480 20 -1447 0 -1460 0 -1480 -20z m930 -1237 c100
-269 186 -491 189 -496 4 -4 91 214 193 485 l186 493 146 3 146 3 2 -648 3
-648 353 -3 352 -2 0 -80 0 -80 -450 0 -450 0 -2 638 -3 637 -186 -495 -186
-495 -100 -3 -99 -3 -185 493 -184 492 -3 -632 -2 -632 -95 0 -95 0 0 730 0
730 144 0 143 0 183 -487z"/>
</g>
</svg>
